<svg width="70" height="70" viewBox="0 0 374 374" fill="none" xmlns="http://www.w3.org/2000/svg">
<g filter="url(#filter0_b_0_1)">
<circle cx="187" cy="187" r="187" fill="#F178B6"/>
</g>
<ellipse cx="187" cy="187.5" rx="178" ry="178.5" fill="#1A1A1A"/>
<path d="M151.8 167.072C156.536 167.072 160.675 168.011 164.216 169.888C167.757 171.765 170.488 174.411 172.408 177.824C174.371 181.195 175.352 185.099 175.352 189.536C175.352 193.931 174.371 197.835 172.408 201.248C170.488 204.661 167.736 207.307 164.152 209.184C160.611 211.061 156.493 212 151.8 212H134.968V167.072H151.8ZM151.096 202.528C155.235 202.528 158.456 201.397 160.76 199.136C163.064 196.875 164.216 193.675 164.216 189.536C164.216 185.397 163.064 182.176 160.76 179.872C158.456 177.568 155.235 176.416 151.096 176.416H145.912V202.528H151.096ZM215.132 193.568C215.132 194.592 215.068 195.659 214.94 196.768H190.172C190.343 198.987 191.047 200.693 192.284 201.888C193.564 203.04 195.121 203.616 196.956 203.616C199.687 203.616 201.585 202.464 202.652 200.16H214.3C213.703 202.507 212.615 204.619 211.036 206.496C209.5 208.373 207.559 209.845 205.212 210.912C202.865 211.979 200.241 212.512 197.34 212.512C193.841 212.512 190.727 211.765 187.996 210.272C185.265 208.779 183.132 206.645 181.596 203.872C180.06 201.099 179.292 197.856 179.292 194.144C179.292 190.432 180.039 187.189 181.532 184.416C183.068 181.643 185.201 179.509 187.932 178.016C190.663 176.523 193.799 175.776 197.34 175.776C200.796 175.776 203.868 176.501 206.556 177.952C209.244 179.403 211.335 181.472 212.828 184.16C214.364 186.848 215.132 189.984 215.132 193.568ZM203.932 190.688C203.932 188.811 203.292 187.317 202.012 186.208C200.732 185.099 199.132 184.544 197.212 184.544C195.377 184.544 193.82 185.077 192.54 186.144C191.303 187.211 190.535 188.725 190.236 190.688H203.932ZM236.97 201.76L244.714 176.288H256.362L243.69 212H230.186L217.514 176.288H229.226L236.97 201.76ZM266.088 212.512C264.168 212.512 262.589 211.957 261.352 210.848C260.157 209.696 259.56 208.288 259.56 206.624C259.56 204.917 260.157 203.488 261.352 202.336C262.589 201.184 264.168 200.608 266.088 200.608C267.965 200.608 269.501 201.184 270.696 202.336C271.933 203.488 272.552 204.917 272.552 206.624C272.552 208.288 271.933 209.696 270.696 210.848C269.501 211.957 267.965 212.512 266.088 212.512Z" fill="white"/>
<defs>
<filter id="filter0_b_0_1" x="-4" y="-4" width="382" height="382" filterUnits="userSpaceOnUse" color-interpolation-filters="sRGB">
<feFlood flood-opacity="0" result="BackgroundImageFix"/>
<feGaussianBlur in="BackgroundImage" stdDeviation="2"/>
<feComposite in2="SourceAlpha" operator="in" result="effect1_backgroundBlur_0_1"/>
<feBlend mode="normal" in="SourceGraphic" in2="effect1_backgroundBlur_0_1" result="shape"/>
</filter>
</defs>
</svg>
